# xmcd
#
# Track frame offsets:
#	150
#	16357
#	33375
#
# Disc length: 682 seconds
#
# Revision: 0
# Processed by: cddbd v1.5.2PL0 Copyright (c) Steve Scherf et al.
# Submitted via: audiograbber 1.83.01
#
DISCID=1a02a803
DTITLE=Up 'n' Down - Muisto [CDM)
DYEAR=2000
DGENRE=Dance
TTITLE0=Muisto (Radio Mix)
TTITLE1=Muisto (DC-10 Radio Mix)
TTITLE2=Muisto (Mellow Club Mix)
EXTD=TR.
EXTT0=
EXTT1=
EXTT2=
PLAYORDER=
